<svg width="260" height="14" viewBox="0 0 260 14" fill="none" xmlns="http://www.w3.org/2000/svg">
<path fill-rule="evenodd" clip-rule="evenodd" d="M215.906 0.135267H218.707L221.577 6.51434L224.031 0.135267H226.625L222.456 9.50087C222.112 10.3381 221.645 11.1196 221.071 11.8197C220.849 12.08 220.572 12.2879 220.26 12.4283C219.948 12.5687 219.609 12.6382 219.267 12.6318C218.69 12.6448 218.114 12.5964 217.548 12.4874V10.6197C217.9 10.6437 218.219 10.6558 218.504 10.6558C218.94 10.694 219.376 10.5826 219.741 10.34C220.085 9.95407 220.33 9.4893 220.453 8.98657L215.906 0.135267ZM227.875 12.4558V0.135267H231.863C232.851 0.0956799 233.841 0.15766 234.818 0.320233C235.529 0.509754 236.154 0.936254 236.591 1.52928C237.094 2.22555 237.348 3.07096 237.312 3.92933C237.333 4.58935 237.192 5.24438 236.902 5.83764C236.656 6.32079 236.299 6.73837 235.86 7.05571C235.474 7.33242 235.037 7.53019 234.574 7.63767C233.722 7.77474 232.86 7.83363 231.998 7.81362H230.378V12.4603L227.875 12.4558ZM230.369 2.21501V5.72936H231.723C232.381 5.76642 233.042 5.70098 233.681 5.53538C233.997 5.41852 234.268 5.20551 234.457 4.92634C234.646 4.64218 234.744 4.3068 234.736 3.96542C234.752 3.55761 234.611 3.15919 234.344 2.85111C234.084 2.55968 233.732 2.36556 233.347 2.30072C232.748 2.22888 232.145 2.20174 231.542 2.21952L230.369 2.21501ZM248.943 12.4558L244.007 0.135267H241.373L236.591 12.4603H239.23L240.254 9.65425H245.216L246.281 12.4603L248.943 12.4558ZM244.386 7.57H241.012L242.676 3.00901L244.391 7.57H244.386ZM251.37 0.135267H260V12.4603H257.505V2.21952H253.806V7.47977C253.831 8.53474 253.779 9.59013 253.652 10.6377C253.584 11.1773 253.323 11.674 252.917 12.0363C252.392 12.4073 251.754 12.5843 251.113 12.537C250.819 12.537 250.292 12.5099 249.525 12.4558V10.5159H250.079C250.443 10.5548 250.809 10.4824 251.131 10.3084C251.311 10.167 251.401 9.82268 251.401 9.2753V7.15947L251.37 0.135267Z" fill="#00477B"/>
<path fill-rule="evenodd" clip-rule="evenodd" d="M28.1701 0.202942L11.5908 12.5235C10.0407 13.6697 8.09884 14.1533 6.19228 13.8677C4.28572 13.5822 2.57067 12.551 1.42443 11.0009C0.278199 9.45085 -0.205335 7.50894 0.080205 5.60238C0.365745 3.69581 1.39697 1.98077 2.94702 0.834533L3.79516 0.202942H9.93512L5.12601 3.81204C4.74951 4.09315 4.43207 4.44567 4.19181 4.84946C3.95155 5.25325 3.79318 5.70042 3.72573 6.16542C3.58952 7.10453 3.83195 8.05928 4.39968 8.81965C4.96741 9.58002 5.81395 10.0837 6.75306 10.2199C7.69217 10.3561 8.64693 10.1137 9.4073 9.54598L21.9173 0.202942H28.1701ZM5.42376 6.39705C5.38825 6.63899 5.40106 6.88557 5.46147 7.12253C5.52187 7.35948 5.62865 7.58211 5.77565 7.77753C5.92157 7.97348 6.10469 8.13873 6.31454 8.26385C6.52439 8.38896 6.75684 8.47148 6.99861 8.50667C7.24038 8.54187 7.48671 8.52906 7.72352 8.46897C7.96033 8.40888 8.18297 8.30269 8.3787 8.15648L19.0436 0.202942H12.8224L6.16813 5.16545C5.96824 5.31077 5.79942 5.49458 5.67159 5.70609C5.54376 5.91759 5.4595 6.15251 5.42376 6.39705ZM22.4722 6.4963L19.3639 8.82868L23.1579 13.7055H27.8994L22.4857 6.48728L22.4722 6.4963ZM17.9834 9.84824L14.8976 12.1806L16.048 13.7145H20.9338L17.9834 9.84824Z" fill="#00477B"/>
<path fill-rule="evenodd" clip-rule="evenodd" d="M199.353 0.198504V3.45126H202.659V12.5193H206.39V3.45126H209.679V0.198504H199.353ZM194.494 5.92804L199.353 12.5193H194.81L192.04 8.17925L191.358 9.08154V12.4967H187.627V0.203015H191.358V4.81822L194.589 0.198504H199.15L194.494 5.92804ZM185.963 9.4199H180.346V7.8454H185.836V4.74153H180.346V3.30238H185.963V0.203015H176.615V12.5193H185.963V9.41539V9.4199ZM171.197 12.4922H175.424L171.409 0.166923H166.717L162.697 12.4877H166.933L169.067 4.71897L171.201 12.4877L171.197 12.4922ZM157.78 12.5238H161.52V0.203015H149.636V12.5193H153.367V3.45126H157.784V12.5193L157.78 12.5238ZM140.316 6.48295L138.168 0.203015H133.016V12.5193H136.747V4.74604L139.499 12.5193H141.164L143.925 4.74604V12.5193H147.656V0.203015H142.49L140.316 6.48295ZM124.945 0C128.753 0 131.685 2.58506 131.685 6.37467C131.685 10.1643 128.748 12.7448 124.945 12.7448C121.142 12.7448 118.21 10.1598 118.21 6.37467C118.21 2.58957 121.142 0 124.945 0ZM124.945 9.47404C126.75 9.47404 127.9 8.1206 127.9 6.38821C127.9 4.65581 126.736 3.30238 124.945 3.30238C123.154 3.30238 121.99 4.65581 121.99 6.38821C121.99 8.1206 123.172 9.47404 124.945 9.47404ZM118.742 0.203015H114.181L110.951 4.82273V0.203015H107.22V12.5238H110.951V9.1041L111.632 8.20181L114.402 12.5418H118.945L114.091 5.92804L118.742 0.203015ZM106.277 0.203015H101.865L99.9067 3.71292L97.9082 0.203015H93.5321L97.3758 6.20775L93.2569 12.5238H97.651L99.9067 8.75672L102.162 12.5238H106.561L102.442 6.20775L106.277 0.203015ZM83.5798 12.5238H92.9456V9.4199H87.3108V7.84992H92.7967V4.74604H87.3108V3.30689H92.9456V0.203015H83.5798V12.5238ZM71.9267 3.45577H75.2336V12.5238H78.9601V3.45577H82.2489V0.203015H71.9267V3.45577ZM66.8649 4.56558H62.4527V0.203015H58.7217V12.5238H62.4527V7.81382H66.8649V12.5238H70.5959V0.203015H66.8649V4.56107V4.56558ZM53.5155 0.207526L58.0585 12.5238H53.9982L53.52 10.9357H48.8056L48.3228 12.5238H44.2625L48.8236 0.207526H53.5155ZM52.5771 7.83638L51.1696 3.49186L49.7665 7.83187L52.5771 7.83638ZM44.637 9.14921L41.4203 7.66946C41.246 8.19024 40.9139 8.64383 40.4701 8.96722C40.0262 9.29061 39.4927 9.46775 38.9435 9.47404C37.2472 9.47404 36.0427 8.1206 36.0427 6.38821C36.0427 4.65581 37.2427 3.29336 38.9435 3.29336C39.4928 3.29898 40.0267 3.47586 40.4707 3.79934C40.9146 4.12283 41.2466 4.57679 41.4203 5.09793L44.6325 3.60916C43.8926 1.88578 42.2685 0 38.9435 0C35.1765 0 32.2576 2.57152 32.2576 6.37467C32.2576 10.1778 35.199 12.7493 38.9435 12.7493C42.2685 12.7493 43.9152 10.7869 44.6325 9.1447L44.637 9.14921Z" fill="#00477B"/>
</svg>
