<svg width="48" height="48" viewBox="0 0 48 48" fill="none" xmlns="http://www.w3.org/2000/svg">
<g clip-path="url(#clip0_1856_8758)">
<path d="M43 16.8088C41.5147 15.3214 40.6841 14.4874 39.2001 13H23.9993L22.9886 14.0131L21.2115 15.7958L20.1994 16.8088L16.3996 20.6176L12.5997 16.8088L8.79986 13H5V35.8571H11.3154L12.5997 34.5684V26.9452L16.3996 30.754L20.1994 26.9452V34.5656L21.4851 35.8571H39.2001L43 32.0469V27.3216H37.25L35.6711 29.226H29.4004L27.8229 27.3216H27.7992V21.5272H27.8229C28.4329 20.7912 28.7833 20.3658 29.4004 19.6228H35.6711L37.25 21.5272H43V16.8088Z" fill="#1976D2"/>
</g>
<defs>
<clipPath id="clip0_1856_8758">
<rect width="38" height="22.8571" fill="white" transform="translate(5 13)"/>
</clipPath>
</defs>
</svg>
