<svg width="48" height="48" viewBox="0 0 48 48" fill="none" xmlns="http://www.w3.org/2000/svg">
<g clip-path="url(#clip0_1856_8822)">
<path d="M29.9375 8.56251H19.25C19.25 7.44923 18.451 6.45537 17.3406 6.2339L11.4031 5.0464C10.705 4.90605 9.98253 5.08811 9.43168 5.5381C8.88142 5.9892 8.5625 6.66355 8.5625 7.37501V14.5C8.5625 15.2115 8.88142 15.8858 9.43168 16.3369C9.86014 16.6877 10.393 16.875 10.9375 16.875C11.0923 16.875 11.2488 16.8599 11.4031 16.8286L17.3406 15.6411C18.451 15.4197 19.25 14.4258 19.25 13.3125H21.625V17.1877C17.5344 18.2465 14.5 21.9581 14.5 26.375V40.625C14.5 41.9366 15.5634 43 16.875 43H31.125C32.4366 43 33.5 41.9366 33.5 40.625V26.375C33.5 21.9581 30.4656 18.2465 26.375 17.1877V13.3125H29.9375C32.5566 13.3125 34.6875 15.4434 34.6875 18.0625V22.8125C34.6875 24.1241 35.7509 25.1875 37.0625 25.1875C38.3741 25.1875 39.4375 24.1241 39.4375 22.8125V18.0625C39.4375 12.8243 35.1757 8.56251 29.9375 8.56251Z" fill="#1976D2"/>
</g>
<defs>
<clipPath id="clip0_1856_8822">
<rect width="38" height="38" fill="white" transform="translate(5 5)"/>
</clipPath>
</defs>
</svg>
