<svg width="48" height="48" viewBox="0 0 48 48" fill="none" xmlns="http://www.w3.org/2000/svg">
<g clip-path="url(#clip0_1856_8830)">
<path d="M20.625 24H19.5V26.25H18.375V24H17.25C16.0074 24 15 25.0074 15 26.25V29.625C15 30.8676 16.0074 31.875 17.25 31.875H20.625C21.8676 31.875 22.875 30.8676 22.875 29.625V26.25C22.875 25.0074 21.8676 24 20.625 24Z" fill="#1976D2"/>
<path d="M30.75 24H29.625V26.25H28.5V24H27.375C26.1324 24 25.125 25.0074 25.125 26.25V29.625C25.125 30.8676 26.1324 31.875 27.375 31.875H30.75C31.9926 31.875 33 30.8676 33 29.625V26.25C33 25.0074 31.9926 24 30.75 24Z" fill="#1976D2"/>
<path d="M20.625 34.125H19.5V36.375H18.375V34.125H17.25C16.0074 34.125 15 35.1324 15 36.375V39.75C15 40.9926 16.0074 42 17.25 42H20.625C21.8676 42 22.875 40.9926 22.875 39.75V36.375C22.875 35.1324 21.8676 34.125 20.625 34.125V34.125Z" fill="#1976D2"/>
<path d="M30.75 34.125H29.625V36.375H28.5V34.125H27.375C26.1324 34.125 25.125 35.1324 25.125 36.375V39.75C25.125 40.9926 26.1324 42 27.375 42H30.75C31.9926 42 33 40.9926 33 39.75V36.375C33 35.1324 31.9926 34.125 30.75 34.125V34.125Z" fill="#1976D2"/>
<path d="M40.7562 14.1124L25.0063 6.23743C24.3724 5.92102 23.6276 5.92102 22.9937 6.23743L7.24375 14.1124C6.3105 14.5793 5.82049 15.6263 6.06054 16.642C6.30002 17.6577 7.19544 18.375 8.25013 18.375V39.7499C8.25013 40.9925 9.25756 41.9999 10.5001 41.9999C11.7427 41.9999 12.7501 40.9925 12.7501 39.7499V21.75H35.25V39.7499C35.25 40.9925 36.2574 41.9999 37.5 41.9999C38.7425 41.9999 39.7499 40.9925 39.7499 39.7499V18.375C40.8046 18.375 41.7 17.6577 41.9395 16.642C42.1795 15.6263 41.6896 14.5793 40.7562 14.1124V14.1124ZM19.5001 17.2501H17.2501V15.0001H19.5001V17.2501ZM26.25 17.2501H21.75V15.0001H26.25V17.2501ZM30.75 17.2501H28.5V15.0001H30.75V17.2501Z" fill="#1976D2"/>
</g>
<defs>
<clipPath id="clip0_1856_8830">
<rect width="36" height="36" fill="white" transform="translate(6 6)"/>
</clipPath>
</defs>
</svg>
