<svg width="48" height="48" viewBox="0 0 48 48" fill="none" xmlns="http://www.w3.org/2000/svg">
<path d="M30.25 20.1184H26.5V16.3684H29C30.3806 16.3684 31.5 15.249 31.5 13.8684C31.5 12.4878 30.3806 11.3684 29 11.3684H19C17.6194 11.3684 16.5 12.4878 16.5 13.8684C16.5 15.249 17.6194 16.3684 19 16.3684H21.5V20.1184H17.75C16.3694 20.1184 15.25 21.1987 15.25 22.5793V35.0793C15.25 36.46 16.3694 37.6184 17.75 37.6184H30.25C31.6306 37.6184 32.75 36.46 32.75 35.0793V22.5793C32.75 21.1987 31.6306 20.1184 30.25 20.1184Z" fill="#1976D2"/>
<path d="M41.5 21.3489C40.1194 21.3489 39 22.4622 39 23.8684H35.25V33.8684H39C39 35.1965 40.1194 36.3489 41.5 36.3489C42.8806 36.3489 44 35.21 44 33.8293V31.3293V26.3293V23.8293C44 22.4487 42.8806 21.3489 41.5 21.3489Z" fill="#1976D2"/>
<path d="M6.5 21.3489C5.11937 21.3489 4 22.4487 4 23.8293V26.3293V31.3293V33.8293C4 35.21 5.11937 36.3489 6.5 36.3489C7.88063 36.3489 9 35.1965 9 33.8684H12.75V23.8684H9C9 22.4622 7.88063 21.3489 6.5 21.3489Z" fill="#1976D2"/>
</svg>
